<mxfile host="app.diagrams.net" modified="2022-02-17T09:28:19.330Z" agent="5.0 (Macintosh; Intel Mac OS X 10_15_7) AppleWebKit/537.36 (KHTML, like Gecko) Chrome/98.0.4758.80 Safari/537.36" etag="3kXkWx5BHP3EPmWhe9RK" version="16.5.6" type="github">
  <diagram id="QDR4EFdla66ue9mtmWTv" name="Page-1">
    <mxGraphModel dx="1008" dy="551" grid="1" gridSize="10" guides="1" tooltips="1" connect="1" arrows="1" fold="1" page="1" pageScale="1" pageWidth="827" pageHeight="1169" math="0" shadow="0">
      <root>
        <mxCell id="0" />
        <mxCell id="1" parent="0" />
        <mxCell id="IzXswNP6vXd2ovuIPSS0-3" style="edgeStyle=orthogonalEdgeStyle;rounded=0;orthogonalLoop=1;jettySize=auto;html=1;entryX=0.5;entryY=0;entryDx=0;entryDy=0;" edge="1" parent="1" source="IzXswNP6vXd2ovuIPSS0-1" target="IzXswNP6vXd2ovuIPSS0-2">
          <mxGeometry relative="1" as="geometry" />
        </mxCell>
        <mxCell id="IzXswNP6vXd2ovuIPSS0-1" value="上传组件设置&lt;br&gt;" style="rounded=0;whiteSpace=wrap;html=1;" vertex="1" parent="1">
          <mxGeometry x="260" y="430" width="120" height="20" as="geometry" />
        </mxCell>
        <mxCell id="IzXswNP6vXd2ovuIPSS0-2" value="测试当前文档2&amp;nbsp;" style="rounded=0;whiteSpace=wrap;html=1;" vertex="1" parent="1">
          <mxGeometry x="450" y="490" width="120" height="60" as="geometry" />
        </mxCell>
      </root>
    </mxGraphModel>
  </diagram>
</mxfile>
